<svg xmlns="http://www.w3.org/2000/svg" width="760" height="580" viewBox="0 0 760 580"
     font-family="'Noto Sans CJK SC','WenQuanYi Micro Hei','PingFang SC','Microsoft YaHei',sans-serif" font-size="17">
  <defs>
    <marker id="arrS" viewBox="0 0 10 10" refX="8" refY="5" markerWidth="6" markerHeight="6" orient="auto-start-reverse">
      <path d="M0,0 L10,5 L0,10 z" fill="#334155"/>
    </marker>
  </defs>
  <rect x="0" y="0" width="760" height="580" fill="#FFFFFF"/>

  <text x="380" y="24" text-anchor="middle" fill="#334155">MC 估计：(1/N) Σ f(X_k) / p(X_k)，样本 X_k 按 p 抽取 —— 两种 p 的对比</text>

  <!-- ====== 上图：均匀采样 ====== -->
  <text x="70" y="48" font-weight="bold" fill="#334155">均匀采样：p(x) = 常数</text>
  <line x1="70" y1="240" x2="716" y2="240" stroke="#334155" stroke-width="2" marker-end="url(#arrS)"/>
  <line x1="70" y1="240" x2="70" y2="62" stroke="#334155" stroke-width="2" marker-end="url(#arrS)"/>
  <text x="726" y="246" fill="#334155" font-style="italic">x</text>

  <!-- 样本竖杆（f(X_k) 的取值） -->
  <g stroke="#334155" stroke-opacity="0.35" stroke-width="1.5">
    <line x1="90" y1="240" x2="90" y2="220.8"/><line x1="130" y1="240" x2="130" y2="220.8"/>
    <line x1="170" y1="240" x2="170" y2="220.8"/><line x1="210" y1="240" x2="210" y2="220.8"/>
    <line x1="250" y1="240" x2="250" y2="220.8"/><line x1="290" y1="240" x2="290" y2="220.8"/>
    <line x1="330" y1="240" x2="330" y2="220.8"/><line x1="370" y1="240" x2="370" y2="220.7"/>
    <line x1="410" y1="240" x2="410" y2="218.0"/><line x1="450" y1="240" x2="450" y2="183.3"/>
    <line x1="490" y1="240" x2="490" y2="93.4"/><line x1="530" y1="240" x2="530" y2="113.0"/>
    <line x1="570" y1="240" x2="570" y2="198.0"/><line x1="610" y1="240" x2="610" y2="219.6"/>
    <line x1="650" y1="240" x2="650" y2="220.8"/><line x1="690" y1="240" x2="690" y2="220.8"/>
  </g>

  <!-- 被积函数 f(x) -->
  <polyline fill="none" stroke="#2563EB" stroke-width="2.5" points="70.0,220.8 86.0,220.8 102.0,220.8 118.0,220.8 134.0,220.8 150.0,220.8 166.0,220.8 182.0,220.8 198.0,220.8 214.0,220.8 230.0,220.8 246.0,220.8 262.0,220.8 278.0,220.8 294.0,220.8 310.0,220.8 326.0,220.8 342.0,220.8 358.0,220.8 374.0,220.7 382.0,220.6 390.0,220.4 398.0,219.8 406.0,218.8 414.0,217.0 422.0,213.8 430.0,208.7 438.0,201.0 446.0,190.0 454.0,175.7 462.0,158.2 470.0,138.6 478.0,118.7 486.0,100.8 494.0,87.5 502.0,80.6 510.0,81.4 518.0,89.7 526.0,104.1 534.0,122.6 542.0,142.6 550.0,161.9 558.0,178.8 566.0,192.5 574.0,202.8 582.0,209.9 590.0,214.6 598.0,217.4 606.0,219.1 614.0,220.0 622.0,220.4 630.0,220.6 646.0,220.8 662.0,220.8 678.0,220.8 694.0,220.8 710.0,220.8"/>
  <text x="502" y="66" text-anchor="middle" fill="#2563EB">f(x)</text>

  <!-- 均匀 pdf（虚线） -->
  <line x1="70" y1="200" x2="710" y2="200" stroke="#334155" stroke-width="1.5" stroke-dasharray="6,5"/>
  <text x="614" y="190" fill="#334155">p(x)（均匀）</text>

  <!-- 均匀样本点 -->
  <g fill="#F59E0B">
    <circle cx="90" cy="240" r="4.5"/><circle cx="130" cy="240" r="4.5"/><circle cx="170" cy="240" r="4.5"/>
    <circle cx="210" cy="240" r="4.5"/><circle cx="250" cy="240" r="4.5"/><circle cx="290" cy="240" r="4.5"/>
    <circle cx="330" cy="240" r="4.5"/><circle cx="370" cy="240" r="4.5"/><circle cx="410" cy="240" r="4.5"/>
    <circle cx="450" cy="240" r="4.5"/><circle cx="490" cy="240" r="4.5"/><circle cx="530" cy="240" r="4.5"/>
    <circle cx="570" cy="240" r="4.5"/><circle cx="610" cy="240" r="4.5"/><circle cx="650" cy="240" r="4.5"/>
    <circle cx="690" cy="240" r="4.5"/>
  </g>
  <text x="90" y="110" fill="#334155">大多数样本落在 f ≈ 0 的区域，</text>
  <text x="90" y="136" fill="#334155">少数碰上尖峰的样本主导结果 → 方差大</text>

  <!-- ====== 下图：重要性采样 ====== -->
  <text x="70" y="308" font-weight="bold" fill="#334155">重要性采样：p(x) ∝ f(x)</text>
  <line x1="70" y1="500" x2="716" y2="500" stroke="#334155" stroke-width="2" marker-end="url(#arrS)"/>
  <line x1="70" y1="500" x2="70" y2="322" stroke="#334155" stroke-width="2" marker-end="url(#arrS)"/>
  <text x="726" y="506" fill="#334155" font-style="italic">x</text>

  <g stroke="#334155" stroke-opacity="0.35" stroke-width="1.5">
    <line x1="109.4" y1="500" x2="109.4" y2="480.8"/><line x1="188.5" y1="500" x2="188.5" y2="480.8"/>
    <line x1="267.5" y1="500" x2="267.5" y2="480.8"/><line x1="346.4" y1="500" x2="346.4" y2="480.8"/>
    <line x1="421.3" y1="500" x2="421.3" y2="474.2"/><line x1="456.6" y1="500" x2="456.6" y2="430.2"/>
    <line x1="473.6" y1="500" x2="473.6" y2="389.5"/><line x1="485.8" y1="500" x2="485.8" y2="361.3"/>
    <line x1="496.0" y1="500" x2="496.0" y2="345.1"/><line x1="505.6" y1="500" x2="505.6" y2="340.0"/>
    <line x1="515.2" y1="500" x2="515.2" y2="346.0"/><line x1="525.6" y1="500" x2="525.6" y2="363.3"/>
    <line x1="537.9" y1="500" x2="537.9" y2="392.3"/><line x1="555.5" y1="500" x2="555.5" y2="433.9"/>
    <line x1="594.2" y1="500" x2="594.2" y2="476.3"/><line x1="670.6" y1="500" x2="670.6" y2="480.8"/>
  </g>

  <polyline fill="none" stroke="#2563EB" stroke-width="2.5" points="70.0,480.8 86.0,480.8 102.0,480.8 118.0,480.8 134.0,480.8 150.0,480.8 166.0,480.8 182.0,480.8 198.0,480.8 214.0,480.8 230.0,480.8 246.0,480.8 262.0,480.8 278.0,480.8 294.0,480.8 310.0,480.8 326.0,480.8 342.0,480.8 358.0,480.8 374.0,480.7 382.0,480.6 390.0,480.4 398.0,479.8 406.0,478.8 414.0,477.0 422.0,473.8 430.0,468.7 438.0,461.0 446.0,450.0 454.0,435.7 462.0,418.2 470.0,398.6 478.0,378.7 486.0,360.8 494.0,347.5 502.0,340.6 510.0,341.4 518.0,349.7 526.0,364.1 534.0,382.6 542.0,402.6 550.0,421.9 558.0,438.8 566.0,452.5 574.0,462.8 582.0,469.9 590.0,474.6 598.0,477.4 606.0,479.1 614.0,480.0 622.0,480.4 630.0,480.6 646.0,480.8 662.0,480.8 678.0,480.8 694.0,480.8 710.0,480.8"/>
  <text x="502" y="326" text-anchor="middle" fill="#2563EB">f(x)</text>

  <!-- p ∝ f（虚线） -->
  <polyline fill="none" stroke="#334155" stroke-width="1.5" stroke-dasharray="6,5" points="70.0,482.7 102.0,482.7 134.0,482.7 166.0,482.7 198.0,482.7 230.0,482.7 262.0,482.7 294.0,482.7 326.0,482.7 358.0,482.7 382.0,482.5 398.0,481.9 406.0,481.0 414.0,479.3 422.0,476.4 430.0,471.8 438.0,464.9 446.0,455.0 454.0,442.1 462.0,426.3 470.0,408.7 478.0,390.8 486.0,374.7 494.0,362.7 502.0,356.6 510.0,357.3 518.0,364.7 526.0,377.7 534.0,394.3 542.0,412.3 550.0,429.7 558.0,444.9 566.0,457.2 574.0,466.5 582.0,472.9 590.0,477.1 598.0,479.7 606.0,481.2 614.0,482.0 622.0,482.4 646.0,482.7 678.0,482.7 710.0,482.7"/>
  <text x="585" y="380" fill="#334155">p ∝ f（虚线）</text>

  <g fill="#F59E0B">
    <circle cx="109.4" cy="500" r="4.5"/><circle cx="188.5" cy="500" r="4.5"/><circle cx="267.5" cy="500" r="4.5"/>
    <circle cx="346.4" cy="500" r="4.5"/><circle cx="421.3" cy="500" r="4.5"/><circle cx="456.6" cy="500" r="4.5"/>
    <circle cx="473.6" cy="500" r="4.5"/><circle cx="485.8" cy="500" r="4.5"/><circle cx="496.0" cy="500" r="4.5"/>
    <circle cx="505.6" cy="500" r="4.5"/><circle cx="515.2" cy="500" r="4.5"/><circle cx="525.6" cy="500" r="4.5"/>
    <circle cx="537.9" cy="500" r="4.5"/><circle cx="555.5" cy="500" r="4.5"/><circle cx="594.2" cy="500" r="4.5"/>
    <circle cx="670.6" cy="500" r="4.5"/>
  </g>
  <text x="90" y="370" fill="#334155">样本聚集在贡献大的区域，</text>
  <text x="90" y="396" fill="#334155">每个样本 f/p ≈ 常数 → 方差小得多</text>

  <text x="380" y="556" text-anchor="middle" fill="#334155">p 越接近 f，f/p 的波动越小；极端情况 p ∝ f 时方差为零 —— 这就是重要性采样</text>
</svg>
