<svg xmlns="http://www.w3.org/2000/svg" width="880" height="580" viewBox="0 0 880 580"
     font-family="'Noto Sans CJK SC','WenQuanYi Micro Hei','PingFang SC','Microsoft YaHei',sans-serif" font-size="17">
  <rect x="0" y="0" width="880" height="580" fill="#FFFFFF"/>

  <!-- ===== 上：场景示意 ===== -->
  <line x1="90" y1="190" x2="560" y2="190" stroke="#334155" stroke-width="2.5"/>
  <rect x="90" y="190" width="470" height="12" fill="#334155" fill-opacity="0.08"/>
  <circle cx="280" cy="190" r="4.5" fill="#334155"/>
  <text x="200" y="228" text-anchor="middle" fill="#334155">粗糙表面上的点 x</text>

  <!-- BSDF 瓣（宽） -->
  <path d="M280,190 C310,90 430,55 470,125 C485,155 420,185 280,190 Z"
        fill="#2563EB" fill-opacity="0.12" stroke="#2563EB" stroke-width="1.8"/>
  <text x="96" y="80" fill="#2563EB">BSDF 采样瓣（宽而平）</text>
  <line x1="240" y1="88" x2="328" y2="118" stroke="#2563EB" stroke-width="1.3"/>

  <!-- 小面积强光源与方向锥（窄） -->
  <rect x="600" y="50" width="30" height="30" fill="#F59E0B" fill-opacity="0.20" stroke="#F59E0B" stroke-width="2"/>
  <text x="645" y="72" fill="#B45309">小面积强光源</text>
  <line x1="280" y1="190" x2="600" y2="76" stroke="#F59E0B" stroke-width="1.5"/>
  <line x1="280" y1="190" x2="630" y2="58" stroke="#F59E0B" stroke-width="1.5"/>
  <text x="455" y="40" fill="#B45309">光源方向锥（窄）</text>

  <!-- ===== 下：两种采样策略的 pdf ===== -->
  <line x1="90" y1="500" x2="800" y2="500" stroke="#334155" stroke-width="2"/>
  <line x1="90" y1="500" x2="90" y2="268" stroke="#334155" stroke-width="2"/>
  <text x="806" y="506" fill="#334155">方向 ω</text>
  <text x="90" y="256" text-anchor="middle" fill="#334155">pdf</text>

  <!-- BSDF 采样 pdf：宽而平 -->
  <polyline fill="none" stroke="#2563EB" stroke-width="2.5" points="90.0,487.8 100.0,485.8 110.0,483.6 120.0,481.2 130.0,478.5 140.0,475.5 150.0,472.2 160.0,468.7 170.0,464.9 180.0,460.9 190.0,456.6 200.0,452.2 210.0,447.5 220.0,442.7 230.0,437.7 240.0,432.7 250.0,427.6 260.0,422.6 270.0,417.7 280.0,412.8 290.0,408.2 300.0,403.9 310.0,399.8 320.0,396.2 330.0,392.9 340.0,390.2 350.0,387.9 360.0,386.2 370.0,385.1 380.0,384.5 390.0,384.6 400.0,385.3 410.0,386.5 420.0,388.3 430.0,390.7 440.0,393.6 450.0,396.9 460.0,400.6 470.0,404.7 480.0,409.1 490.0,413.8 500.0,418.6 510.0,423.6 520.0,428.6 530.0,433.7 540.0,438.7 550.0,443.6 560.0,448.4 570.0,453.1 580.0,457.5 590.0,461.7 600.0,465.7 610.0,469.4 620.0,472.9 630.0,476.1 640.0,479.0 650.0,481.7 660.0,484.1 670.0,486.3 680.0,488.2 690.0,489.9 700.0,491.4 710.0,492.7 720.0,493.9 730.0,494.9 740.0,495.7 750.0,496.5 760.0,497.1 770.0,497.6 780.0,498.1 790.0,498.4"/>
  <text x="170" y="362" fill="#2563EB">p_BSDF（宽而平）</text>
  <line x1="230" y1="368" x2="300" y2="402" stroke="#2563EB" stroke-width="1.3"/>

  <!-- 光源采样 pdf：窄而尖 -->
  <polyline fill="none" stroke="#F59E0B" stroke-width="2.5" points="505.0,499.6 510.0,498.9 515.0,497.2 520.0,493.8 525.0,487.2 530.0,475.8 535.0,457.6 540.0,431.9 545.0,399.3 550.0,362.9 555.0,328.3 560.0,302.2 565.0,290.3 570.0,295.5 575.0,316.5 580.0,348.5 585.0,384.9 590.0,419.6 595.0,448.3 600.0,469.4 605.0,483.3 610.0,491.7 615.0,496.2 620.0,498.4 625.0,499.4 630.0,499.8"/>
  <text x="600" y="310" fill="#B45309">p_light（窄而尖）</text>
  <line x1="596" y1="316" x2="572" y2="300" stroke="#B45309" stroke-width="1.3"/>

  <!-- 灯所在方向 -->
  <line x1="566" y1="500" x2="566" y2="268" stroke="#334155" stroke-width="1.3" stroke-dasharray="6,5"/>
  <text x="566" y="254" text-anchor="middle" fill="#334155">灯所在的方向</text>

  <!-- 权重公式与结论 -->
  <text x="440" y="540" text-anchor="middle" fill="#334155">balance heuristic：w_light = p_light / (p_light + p_BSDF)，w_BSDF 同理，两者之和恒为 1</text>
  <text x="440" y="566" text-anchor="middle" fill="#334155">哪种策略的 pdf 大，它的权重就大 —— 两种采样互补覆盖，MIS 自动取长补短</text>
</svg>
