<svg xmlns="http://www.w3.org/2000/svg" width="820" height="510" viewBox="0 0 820 510" font-family="sans-serif">
  <rect x="0" y="0" width="820" height="510" fill="#FFFFFF"/>

  <text x="24" y="36" font-size="20" font-weight="bold" fill="#334155">[0,1)² 上的 64 个样本：纯随机 vs 分层</text>

  <text x="230" y="100" font-size="17" fill="#334155" text-anchor="middle">纯随机：64 个独立均匀点</text>
  <text x="630" y="100" font-size="17" fill="#334155" text-anchor="middle">分层 8×8：每格恰好一点</text>

  <!-- 左：纯随机 -->
  <rect x="70" y="120" width="320" height="320" fill="none" stroke="#334155" stroke-width="1.8"/>
  <circle cx="214.8" cy="260.9" r="4" fill="#2563EB"/>
  <circle cx="365.7" cy="291.0" r="4" fill="#2563EB"/>
  <circle cx="232.5" cy="252.0" r="4" fill="#2563EB"/>
  <circle cx="129.1" cy="276.2" r="4" fill="#2563EB"/>
  <circle cx="271.6" cy="186.2" r="4" fill="#2563EB"/>
  <circle cx="100.1" cy="342.9" r="4" fill="#2563EB"/>
  <circle cx="99.0" cy="180.9" r="4" fill="#2563EB"/>
  <circle cx="291.9" cy="426.6" r="4" fill="#2563EB"/>
  <circle cx="384.3" cy="131.3" r="4" fill="#2563EB"/>
  <circle cx="279.3" cy="243.0" r="4" fill="#2563EB"/>
  <circle cx="120.4" cy="435.2" r="4" fill="#2563EB"/>
  <circle cx="239.1" cy="420.9" r="4" fill="#2563EB"/>
  <circle cx="130.9" cy="362.6" r="4" fill="#2563EB"/>
  <circle cx="79.6" cy="291.5" r="4" fill="#2563EB"/>
  <circle cx="211.0" cy="170.4" r="4" fill="#2563EB"/>
  <circle cx="236.1" cy="235.1" r="4" fill="#2563EB"/>
  <circle cx="229.9" cy="228.0" r="4" fill="#2563EB"/>
  <circle cx="216.3" cy="351.0" r="4" fill="#2563EB"/>
  <circle cx="389.2" cy="121.4" r="4" fill="#2563EB"/>
  <circle cx="338.9" cy="213.5" r="4" fill="#2563EB"/>
  <circle cx="170.9" cy="366.5" r="4" fill="#2563EB"/>
  <circle cx="162.5" cy="417.5" r="4" fill="#2563EB"/>
  <circle cx="315.2" cy="311.9" r="4" fill="#2563EB"/>
  <circle cx="340.9" cy="316.3" r="4" fill="#2563EB"/>
  <circle cx="376.6" cy="168.9" r="4" fill="#2563EB"/>
  <circle cx="70.2" cy="372.9" r="4" fill="#2563EB"/>
  <circle cx="361.3" cy="289.6" r="4" fill="#2563EB"/>
  <circle cx="383.7" cy="312.8" r="4" fill="#2563EB"/>
  <circle cx="93.4" cy="238.6" r="4" fill="#2563EB"/>
  <circle cx="319.1" cy="353.7" r="4" fill="#2563EB"/>
  <circle cx="97.9" cy="333.6" r="4" fill="#2563EB"/>
  <circle cx="378.5" cy="197.4" r="4" fill="#2563EB"/>
  <circle cx="107.8" cy="361.2" r="4" fill="#2563EB"/>
  <circle cx="102.3" cy="420.8" r="4" fill="#2563EB"/>
  <circle cx="325.0" cy="383.1" r="4" fill="#2563EB"/>
  <circle cx="249.0" cy="296.8" r="4" fill="#2563EB"/>
  <circle cx="131.0" cy="205.8" r="4" fill="#2563EB"/>
  <circle cx="111.9" cy="234.0" r="4" fill="#2563EB"/>
  <circle cx="107.3" cy="305.4" r="4" fill="#2563EB"/>
  <circle cx="138.1" cy="353.7" r="4" fill="#2563EB"/>
  <circle cx="380.7" cy="182.9" r="4" fill="#2563EB"/>
  <circle cx="167.3" cy="156.8" r="4" fill="#2563EB"/>
  <circle cx="137.4" cy="313.8" r="4" fill="#2563EB"/>
  <circle cx="343.4" cy="234.6" r="4" fill="#2563EB"/>
  <circle cx="102.1" cy="123.4" r="4" fill="#2563EB"/>
  <circle cx="138.2" cy="357.4" r="4" fill="#2563EB"/>
  <circle cx="317.3" cy="334.7" r="4" fill="#2563EB"/>
  <circle cx="164.8" cy="416.5" r="4" fill="#2563EB"/>
  <circle cx="98.8" cy="253.5" r="4" fill="#2563EB"/>
  <circle cx="147.8" cy="247.6" r="4" fill="#2563EB"/>
  <circle cx="188.9" cy="295.0" r="4" fill="#2563EB"/>
  <circle cx="376.9" cy="285.2" r="4" fill="#2563EB"/>
  <circle cx="253.9" cy="162.7" r="4" fill="#2563EB"/>
  <circle cx="128.5" cy="390.7" r="4" fill="#2563EB"/>
  <circle cx="360.7" cy="178.3" r="4" fill="#2563EB"/>
  <circle cx="149.8" cy="379.3" r="4" fill="#2563EB"/>
  <circle cx="306.6" cy="139.1" r="4" fill="#2563EB"/>
  <circle cx="132.9" cy="136.0" r="4" fill="#2563EB"/>
  <circle cx="352.3" cy="246.9" r="4" fill="#2563EB"/>
  <circle cx="204.9" cy="406.8" r="4" fill="#2563EB"/>
  <circle cx="82.4" cy="131.9" r="4" fill="#2563EB"/>
  <circle cx="146.3" cy="214.5" r="4" fill="#2563EB"/>
  <circle cx="152.2" cy="176.4" r="4" fill="#2563EB"/>
  <circle cx="260.9" cy="346.1" r="4" fill="#2563EB"/>
  <!-- 成团 / 空洞标注 -->
  <circle cx="228" cy="244" r="30" fill="none" stroke="#F59E0B" stroke-width="1.8" stroke-dasharray="5 4"/>
  <text x="264" y="220" font-size="16" fill="#F59E0B">成团</text>
  <circle cx="315" cy="175" r="25" fill="none" stroke="#94A3B8" stroke-width="1.8" stroke-dasharray="5 4"/>
  <text x="345" y="162" font-size="16" fill="#94A3B8">空洞</text>

  <!-- 右：8×8 分层 -->
  <rect x="470" y="120" width="320" height="320" fill="none" stroke="#334155" stroke-width="1.8"/>
  <g stroke="#CBD5E1" stroke-width="1">
    <line x1="510" y1="120" x2="510" y2="440"/>
    <line x1="550" y1="120" x2="550" y2="440"/>
    <line x1="590" y1="120" x2="590" y2="440"/>
    <line x1="630" y1="120" x2="630" y2="440"/>
    <line x1="670" y1="120" x2="670" y2="440"/>
    <line x1="710" y1="120" x2="710" y2="440"/>
    <line x1="750" y1="120" x2="750" y2="440"/>
    <line x1="470" y1="160" x2="790" y2="160"/>
    <line x1="470" y1="200" x2="790" y2="200"/>
    <line x1="470" y1="240" x2="790" y2="240"/>
    <line x1="470" y1="280" x2="790" y2="280"/>
    <line x1="470" y1="320" x2="790" y2="320"/>
    <line x1="470" y1="360" x2="790" y2="360"/>
    <line x1="470" y1="400" x2="790" y2="400"/>
  </g>
  <circle cx="482.0" cy="418.7" r="4" fill="#2563EB"/>
  <circle cx="486.0" cy="376.8" r="4" fill="#2563EB"/>
  <circle cx="493.8" cy="353.2" r="4" fill="#2563EB"/>
  <circle cx="475.2" cy="289.7" r="4" fill="#2563EB"/>
  <circle cx="482.7" cy="268.1" r="4" fill="#2563EB"/>
  <circle cx="505.1" cy="220.9" r="4" fill="#2563EB"/>
  <circle cx="500.2" cy="180.7" r="4" fill="#2563EB"/>
  <circle cx="494.2" cy="150.6" r="4" fill="#2563EB"/>
  <circle cx="534.1" cy="408.8" r="4" fill="#2563EB"/>
  <circle cx="530.7" cy="372.7" r="4" fill="#2563EB"/>
  <circle cx="535.2" cy="353.3" r="4" fill="#2563EB"/>
  <circle cx="537.9" cy="297.2" r="4" fill="#2563EB"/>
  <circle cx="524.0" cy="274.3" r="4" fill="#2563EB"/>
  <circle cx="541.1" cy="220.8" r="4" fill="#2563EB"/>
  <circle cx="536.7" cy="168.5" r="4" fill="#2563EB"/>
  <circle cx="536.5" cy="127.2" r="4" fill="#2563EB"/>
  <circle cx="566.8" cy="410.9" r="4" fill="#2563EB"/>
  <circle cx="568.3" cy="366.8" r="4" fill="#2563EB"/>
  <circle cx="581.5" cy="352.2" r="4" fill="#2563EB"/>
  <circle cx="558.9" cy="308.6" r="4" fill="#2563EB"/>
  <circle cx="584.2" cy="261.9" r="4" fill="#2563EB"/>
  <circle cx="573.9" cy="226.0" r="4" fill="#2563EB"/>
  <circle cx="570.2" cy="183.5" r="4" fill="#2563EB"/>
  <circle cx="565.5" cy="137.4" r="4" fill="#2563EB"/>
  <circle cx="612.6" cy="407.7" r="4" fill="#2563EB"/>
  <circle cx="615.5" cy="367.0" r="4" fill="#2563EB"/>
  <circle cx="620.8" cy="325.1" r="4" fill="#2563EB"/>
  <circle cx="615.2" cy="310.2" r="4" fill="#2563EB"/>
  <circle cx="621.0" cy="245.9" r="4" fill="#2563EB"/>
  <circle cx="622.3" cy="217.9" r="4" fill="#2563EB"/>
  <circle cx="616.5" cy="188.8" r="4" fill="#2563EB"/>
  <circle cx="620.1" cy="137.8" r="4" fill="#2563EB"/>
  <circle cx="643.5" cy="433.3" r="4" fill="#2563EB"/>
  <circle cx="660.8" cy="365.1" r="4" fill="#2563EB"/>
  <circle cx="637.5" cy="330.9" r="4" fill="#2563EB"/>
  <circle cx="647.3" cy="310.6" r="4" fill="#2563EB"/>
  <circle cx="643.7" cy="251.8" r="4" fill="#2563EB"/>
  <circle cx="661.3" cy="233.9" r="4" fill="#2563EB"/>
  <circle cx="653.5" cy="193.8" r="4" fill="#2563EB"/>
  <circle cx="656.6" cy="145.1" r="4" fill="#2563EB"/>
  <circle cx="701.6" cy="405.4" r="4" fill="#2563EB"/>
  <circle cx="690.2" cy="364.8" r="4" fill="#2563EB"/>
  <circle cx="684.2" cy="352.9" r="4" fill="#2563EB"/>
  <circle cx="693.0" cy="314.2" r="4" fill="#2563EB"/>
  <circle cx="680.8" cy="262.8" r="4" fill="#2563EB"/>
  <circle cx="693.4" cy="230.5" r="4" fill="#2563EB"/>
  <circle cx="676.1" cy="168.8" r="4" fill="#2563EB"/>
  <circle cx="684.3" cy="126.1" r="4" fill="#2563EB"/>
  <circle cx="742.1" cy="423.7" r="4" fill="#2563EB"/>
  <circle cx="728.8" cy="379.4" r="4" fill="#2563EB"/>
  <circle cx="734.4" cy="337.1" r="4" fill="#2563EB"/>
  <circle cx="731.8" cy="296.3" r="4" fill="#2563EB"/>
  <circle cx="743.4" cy="259.8" r="4" fill="#2563EB"/>
  <circle cx="727.9" cy="213.3" r="4" fill="#2563EB"/>
  <circle cx="722.0" cy="186.0" r="4" fill="#2563EB"/>
  <circle cx="744.5" cy="139.4" r="4" fill="#2563EB"/>
  <circle cx="771.5" cy="434.9" r="4" fill="#2563EB"/>
  <circle cx="767.4" cy="377.6" r="4" fill="#2563EB"/>
  <circle cx="755.4" cy="336.5" r="4" fill="#2563EB"/>
  <circle cx="774.0" cy="313.4" r="4" fill="#2563EB"/>
  <circle cx="773.9" cy="261.0" r="4" fill="#2563EB"/>
  <circle cx="775.5" cy="224.5" r="4" fill="#2563EB"/>
  <circle cx="776.3" cy="172.8" r="4" fill="#2563EB"/>
  <circle cx="755.5" cy="153.4" r="4" fill="#2563EB"/>

  <text x="230" y="472" font-size="16" fill="#334155" text-anchor="middle">空洞与成团 → 方差大</text>
  <text x="630" y="472" font-size="16" fill="#334155" text-anchor="middle">覆盖均匀 → 方差更小</text>
  <text x="410" y="500" font-size="16" fill="#64748B" text-anchor="middle">sundog：把 spp 分成 ⌊√N⌋² 个分层，raygen 在每个像素内做分层抖动</text>
</svg>
